<?xml version="1.0" encoding="UTF-8" standalone="no"?>
<!-- Created with Inkscape (http://www.inkscape.org/) -->

<svg
   height="225.79712"
   width="200"
   sodipodi:docname="描画.svg"
   version="1.1"
   id="svg2668"
   viewBox="0 0 200 225.79712"
   xml:space="preserve"
   inkscape:version="1.2.1 (9c6d41e410, 2022-07-14)"
   inkscape:export-filename="output.svg"
   inkscape:export-xdpi="96"
   inkscape:export-ydpi="96"
   xmlns:inkscape="http://www.inkscape.org/namespaces/inkscape"
   xmlns:sodipodi="http://sodipodi.sourceforge.net/DTD/sodipodi-0.dtd"
   xmlns="http://www.w3.org/2000/svg"
   xmlns:svg="http://www.w3.org/2000/svg"
   xmlns:rdf="http://www.w3.org/1999/02/22-rdf-syntax-ns#"
   xmlns:cc="http://creativecommons.org/ns#"
   xmlns:dc="http://purl.org/dc/elements/1.1/"><sodipodi:namedview
     id="base"
     pagecolor="#ffffff"
     bordercolor="#000000"
     borderopacity="0.3"
     inkscape:pageopacity="0.0"
     inkscape:pageshadow="2"
     inkscape:zoom="0.99999999"
     inkscape:cx="592.00001"
     inkscape:cy="619.50001"
     inkscape:document-units="px"
     inkscape:current-layer="g1540"
     showgrid="false"
     showguides="true"
     inkscape:window-width="1409"
     inkscape:window-height="1000"
     inkscape:window-x="934"
     inkscape:window-y="1471"
     inkscape:window-maximized="0"
     showborder="true"
     inkscape:showpageshadow="false"
     inkscape:pagecheckerboard="1"
     inkscape:deskcolor="#d1d1d1"><sodipodi:guide
       id="guide_baseline"
       inkscape:label="baseline"
       position="-637,141.89856"
       orientation="0,1"
       inkscape:locked="false" /><sodipodi:guide
       id="guide_ascender"
       inkscape:label="ascender"
       position="-637,833.89856"
       orientation="0,1"
       inkscape:locked="false" /><sodipodi:guide
       id="guide_caps"
       inkscape:label="caps"
       position="-637,784.89856"
       orientation="0,1"
       inkscape:locked="false" /><sodipodi:guide
       id="guide_xheight"
       inkscape:label="xheight"
       position="-637,617.89856"
       orientation="0,1"
       inkscape:locked="false" /><sodipodi:guide
       id="guide_descender"
       inkscape:label="descender"
       position="-637,-83.101441"
       orientation="0,1"
       inkscape:locked="false" /></sodipodi:namedview><defs
     id="defs4"><rect
       x="347"
       y="457"
       width="527"
       height="346"
       id="rect1409" /><filter
       inkscape:label="Sharpen More"
       inkscape:menu="Image Effects"
       inkscape:menu-tooltip="Sharpen edges and boundaries within the object, force=0.3"
       style="color-interpolation-filters:sRGB"
       id="filter561"
       x="-0.28468078"
       y="-0.23682588"
       width="1.5693293"
       height="1.4739977"><feTurbulence
         result="result1"
         baseFrequency="0.050000000000000003 0.25"
         numOctaves="4"
         type="fractalNoise"
         id="feTurbulence545"
         seed="0" /><feGaussianBlur
         in="SourceAlpha"
         stdDeviation="15"
         result="result91"
         id="feGaussianBlur547" /><feComposite
         operator="out"
         in="SourceAlpha"
         in2="result91"
         id="feComposite549"
         baseFrequency="0.25" /><feComposite
         in2="result1"
         id="feComposite551" /><feColorMatrix
         result="result1"
         values="1 0 0 0 0 0 1 0 0 0 0 0 1 0 0 0 0 0 20 -9"
         id="feColorMatrix553" /><feComposite
         result="result1"
         operator="in"
         in="SourceGraphic"
         in2="result1"
         id="feComposite555" /><feTurbulence
         baseFrequency="0.032"
         numOctaves="1"
         result="result92"
         id="feTurbulence557" /><feDisplacementMap
         scale="4.1"
         yChannelSelector="G"
         xChannelSelector="R"
         in="result1"
         in2="result92"
         id="feDisplacementMap559"
         result="fbSourceGraphic" /><feColorMatrix
         result="fbSourceGraphicAlpha"
         in="fbSourceGraphic"
         values="0 0 0 -1 0 0 0 0 -1 0 0 0 0 -1 0 0 0 0 1 0"
         id="feColorMatrix567" /><feConvolveMatrix
         id="feConvolveMatrix569"
         targetY="1"
         targetX="1"
         in="fbSourceGraphic"
         divisor="1"
         kernelMatrix="0 -0.3 0 -0.3 2.2 -0.3 0 -0.3 0"
         order="3 3"
         result="result1" /><feBlend
         in2="fbSourceGraphic"
         id="feBlend571"
         mode="normal"
         result="result2" /></filter><filter
       inkscape:label="Sharpen More"
       inkscape:menu="Image Effects"
       inkscape:menu-tooltip="Sharpen edges and boundaries within the object, force=0.3"
       style="color-interpolation-filters:sRGB"
       id="filter561-5"
       x="-0.28468078"
       y="-0.23682588"
       width="1.5693293"
       height="1.4739977"><feTurbulence
         result="result1"
         baseFrequency="0.050000000000000003 0.25"
         numOctaves="4"
         type="fractalNoise"
         id="feTurbulence545-3"
         seed="0" /><feGaussianBlur
         in="SourceAlpha"
         stdDeviation="15"
         result="result91"
         id="feGaussianBlur547-4" /><feComposite
         operator="out"
         in="SourceAlpha"
         in2="result91"
         id="feComposite549-0"
         baseFrequency="0.25" /><feComposite
         in2="result1"
         id="feComposite551-2" /><feColorMatrix
         result="result1"
         values="1 0 0 0 0 0 1 0 0 0 0 0 1 0 0 0 0 0 20 -9"
         id="feColorMatrix553-6" /><feComposite
         result="result1"
         operator="in"
         in="SourceGraphic"
         in2="result1"
         id="feComposite555-7" /><feTurbulence
         baseFrequency="0.032"
         numOctaves="1"
         result="result92"
         id="feTurbulence557-9" /><feDisplacementMap
         scale="4.1"
         yChannelSelector="G"
         xChannelSelector="R"
         in="result1"
         in2="result92"
         id="feDisplacementMap559-5"
         result="fbSourceGraphic" /><feColorMatrix
         result="fbSourceGraphicAlpha"
         in="fbSourceGraphic"
         values="0 0 0 -1 0 0 0 0 -1 0 0 0 0 -1 0 0 0 0 1 0"
         id="feColorMatrix567-3" /><feConvolveMatrix
         id="feConvolveMatrix569-9"
         targetY="1"
         targetX="1"
         in="fbSourceGraphic"
         divisor="1"
         kernelMatrix="0 -0.3 0 -0.3 2.2 -0.3 0 -0.3 0"
         order="3 3"
         result="result1" /><feBlend
         in2="fbSourceGraphic"
         id="feBlend571-9"
         mode="normal"
         result="result2" /></filter></defs><metadata
     id="metadata7"><rdf:RDF><cc:Work
         rdf:about=""><dc:format>image/svg+xml</dc:format><dc:type
           rdf:resource="http://purl.org/dc/dcmitype/StillImage" /></cc:Work></rdf:RDF></metadata><g
     id="layer1"
     inkscape:groupmode="layer"
     inkscape:label="Layer 1"
     transform="translate(-637,-663.10144)"><g
       id="g1540"
       transform="translate(28.5,9.9999993)"
       inkscape:export-filename="fin.png"
       inkscape:export-xdpi="350"
       inkscape:export-ydpi="350"><path
         id="path10416-7"
         sodipodi:nodetypes="cccccccccccccccccccccccccccccccccccccccccccccccccccccccccccccccccccccccccccccccccccccccccccccccccccccccccccccccccccccccccccccccccccccccccccccccccccccccccccccccccccccccccccccccccccccccccccccccc"
         style="fill:#0d0d0d;fill-opacity:1;fill-rule:evenodd;stroke:#0d0d0d;stroke-width:0.403427pt;stroke-opacity:1;filter:url(#filter561)"
         d="m 501.55459,532.68748 c 1.0719,-0.89561 2.67915,-2.14622 4.82255,-1.96468 2.14342,0.17751 6.96638,0.53252 8.75234,0.17751 1.78638,-0.35905 3.21531,0.1775 3.75106,-1.25063 0.53575,-1.42814 0.71447,-6.07561 2.14341,-7.85875 1.42894,-1.78717 5.35871,-3.75187 5.89446,-5.53905 0.53575,-1.78718 0.71447,-2.50124 0,-4.28439 -0.71446,-1.78718 -2.32211,-3.39685 -4.64424,-4.46593 -2.32172,-1.07311 -4.46513,-1.78718 -4.46513,-1.78718 0,0 -4.64424,4.28843 -4.82296,5.3575 -0.17872,1.07312 0.35744,2.14624 -0.71446,2.67876 -1.0715,0.53655 -2.85788,-1.06909 -3.21491,-3.92937 -0.35744,-2.85626 0.89278,-6.24909 0.71447,-8.21377 -0.17872,-1.96469 -1.42894,-3.75186 -0.35744,-5.71655 1.07191,-1.96468 3.57234,-5.00249 5.53703,-6.43063 1.96509,-1.42813 5.35872,-1.60967 5.89447,-3.39281 0.53616,-1.78718 -3.39363,-8.57685 -3.39363,-10.18249 0,-1.60564 0.53574,-4.64343 -0.71448,-7.14467 -1.25021,-2.50125 -2.67915,-7.85875 -8.03786,-11.25157 -5.35831,-3.39687 -9.10937,-4.82499 -10.00256,-7.32623 -0.89318,-2.50124 -0.17871,-2.50124 0.89319,-3.21531 1.07151,-0.71406 -2.85787,-4.82135 -4.1085,-8.75072 -1.25017,-3.92978 -3.39358,-11.78893 -2.50052,-12.50341 0.89311,-0.71446 3.57243,0 4.1081,1.42895 0.53575,1.42893 2.67916,10.18126 2.67916,10.18126 0,0 -0.53575,-6.60893 0.35743,-8.57362 0.89319,-1.96468 1.96468,-3.92977 3.03659,-3.39361 1.0715,0.53575 0.53575,12.14596 0.53575,12.14596 0,0 1.0719,-2.67916 1.78638,-4.28681 0.71446,-1.60766 1.25021,-3.0366 2.1434,-2.14341 0.89277,0.89279 0.17831,9.4668 0.17831,9.4668 0,0 1.42894,-2.1434 2.50085,-2.67955 1.0715,-0.53576 1.60766,-0.89278 2.32212,0.35744 0.71447,1.25021 0.53576,2.85786 0.53576,2.85786 0,0 0.53574,-1.78636 1.78595,-1.78636 1.25063,0 2.85829,0.53615 2.32213,1.96508 -0.53575,1.42894 4.82296,0.17832 4.46552,2.67916 -0.35703,2.50246 0,4.82215 1.42895,4.82215 1.42893,0 2.32212,1.9647 5.17999,1.25063 1.78638,1.07312 -0.89318,7.68125 0.35704,6.78967 1.25062,-0.89561 4.10849,-1.60968 5.17999,0.35502 1.07312,1.96468 -1.42893,4.28842 0,6.07157 1.42814,1.78717 0,3.39684 2.1422,4.82497 2.14622,1.42814 2.32373,0.35503 2.86029,3.57034 0.53656,3.21529 0.53656,4.64746 1.42814,5.89405 0.89156,1.25062 1.96468,2.14622 1.78717,4.82499 -0.18155,2.67874 -1.78717,5.17999 0.35502,4.82094 2.14622,-0.35502 3.0378,-2.50124 4.64344,-3.39281 1.60967,-0.89158 1.96468,-1.07312 4.11091,-2.67876 2.14219,-1.60967 2.50124,-3.75187 3.75187,-4.28842 1.24659,-0.53253 2.31969,-0.35501 4.10688,-1.06909 1.78718,-0.71406 3.57032,-2.32373 4.46593,-3.0378 0.89157,-0.71406 0.89157,-1.0731 2.50124,-2.50123 1.60564,-1.42813 3.21531,-2.31971 4.28439,-4.64345 1.07312,-2.32373 0.8956,-2.50124 2.14624,-5.89406 1.24659,-3.39281 0.89157,-4.46594 1.60564,-5.89407 0.71406,-1.42812 0.71406,-2.67874 1.96468,-3.92937 1.25062,-1.25062 2.32374,-2.67874 2.50125,-1.42813 0.1775,1.25063 0.1775,3.03377 0.1775,4.10689 0,1.0731 1.60967,-1.60967 3.03779,-4.28843 1.42815,-2.67874 0.71408,-3.03537 1.25063,-5.35751 0.53656,-2.32172 0,-3.92937 0.17752,-6.60852 0.1775,-2.67955 0.53655,-2.85787 0.71407,-6.78766 0.1775,-3.92977 0.49621,-4.58937 0.49621,-7.44725 0,-2.85786 -0.10493,-4.0141 -0.13717,-6.12765 0.61725,-1.62257 1.31517,-2.1188 1.78315,-1.96509 0.58093,0.15371 1.35954,0.1638 1.82752,2.32213 0.35905,2.32211 0.67776,4.05362 1.03277,8.39531 -0.35905,4.2868 -0.53656,8.03787 0.17751,9.10937 0.71406,1.0719 1.25061,0.89318 1.78718,-0.35703 0.53655,-1.25063 0.53655,-1.78638 1.25061,-3.92979 0.71407,-2.1434 0.66969,-3.54813 1.0368,-6.53954 -0.18152,-4.46553 0.0323,-6.49961 0.21382,-9.89322 0.17751,-3.39403 -0.0202,-3.49288 0.35502,-5.53744 0.32275,-1.93499 0.77457,-2.39612 2.32375,-2.14332 0.89157,1.0717 1.07311,3.75098 1.42812,6.07318 0.35906,2.32212 0.35906,2.1434 0.53656,6.43022 0.17751,4.2868 0.0242,5.99815 -0.33081,7.42708 -0.0847,1.59272 -0.40343,3.17536 -0.20575,3.8257 1.07312,-0.71448 1.07312,-1.9647 2.1422,-4.46513 1.07311,-2.50085 1.96469,-4.64425 2.32373,-7.50212 0.35502,-2.85788 1.31114,-3.90477 1.92032,-7.05028 1.42812,-3.03663 1.74279,-3.77072 2.72312,-3.84546 1.03682,0.74415 1.52898,1.41408 1.42813,3.75105 -0.53655,2.50044 -0.53655,3.75106 -1.42813,6.25149 -0.89158,2.50086 -0.71407,3.57236 -1.96468,6.25192 -0.75844,2.35157 -0.85124,3.15035 -1.25063,3.92936 1.78718,0.17872 1.76298,-0.5309 2.8603,-1.78596 1.80331,-3.43881 1.12152,-2.71426 1.78314,-3.75106 0.99243,-2.07402 1.84366,-2.83771 2.67876,-2.50085 0.89561,1.42895 1.25062,1.78638 0.53655,3.39403 -0.71406,1.60725 -0.17751,0.53575 -1.25061,2.85788 -1.06909,2.32171 -2.14221,3.2149 -0.71407,3.03618 1.42813,-0.17832 1.60967,0 2.50124,-1.42893 0.89157,-1.42895 0,-1.60725 1.96469,-2.50044 1.96468,-0.89319 3.21531,-2.50084 3.75186,-1.25021 0.53655,1.25021 0.71406,1.07149 -0.53655,2.85786 -1.25063,1.78597 -2.50125,2.32172 -1.96469,3.2149 0.53655,0.8932 1.96469,1.07192 3.03779,1.07192 1.06909,0 1.25063,0.17831 0.71407,1.96469 -0.53656,1.78636 -0.71407,1.78636 -0.89561,2.67915 -0.1775,0.89318 0.71811,1.60766 0.71811,1.60766 0,0 1.60563,-1.07151 0.35501,1.60765 -1.25062,2.67915 -1.96468,1.96468 -2.67875,3.2149 -0.71407,1.25063 -1.42813,2.50085 -0.35905,2.50085 1.07312,0 2.14622,-0.17872 1.96468,0.71447 -0.1775,0.89318 -1.78314,1.78435 -0.89156,2.3209 0.89156,0.53657 1.60967,-0.1775 2.32373,0.53657 0.71407,0.71406 0,1.96468 0,2.86028 0,0.89158 -0.18154,1.60564 0.1775,2.49722 0.35503,0.89559 1.07312,1.78718 0.53657,2.67875 -0.53657,0.89561 0.1775,1.07312 -1.25063,1.96873 -1.42813,0.89156 -2.32374,0.71406 -2.32374,1.60562 0,0.89158 -0.1775,0.71408 0.71407,1.42814 0.8956,0.71407 1.96469,0.1775 1.25062,1.78717 -0.71406,1.60564 -0.53656,1.42813 -0.89157,2.85626 -0.35905,1.43217 0.17751,0.71408 -1.42813,4.11092 -1.60967,3.39282 -3.21531,5.89407 -4.82498,6.78563 -1.60563,0.89561 -1.25061,2.8603 -0.17751,3.21532 1.07312,0.35905 1.25063,1.96469 0.17751,4.28843 -1.06907,2.3197 -2.3197,5.3575 -2.67874,6.96313 -0.35503,1.60967 -0.71408,1.78718 -2.50126,3.75188 -1.78314,1.96468 -3.21531,3.75186 -4.82094,4.28841 -1.60967,0.53656 -1.78718,2.3197 -2.86029,3.21531 -1.06909,0.89158 -1.42813,1.42814 -3.74784,1.42814 -2.32374,0 -2.32374,-0.53656 -4.64747,0.17751 -2.3197,0.71406 -3.39282,1.42813 -3.57033,2.50123 -0.1775,1.07312 -0.89156,1.60967 -2.32373,1.25063 -1.42814,-0.35502 -0.35502,0.71406 -2.14221,1.42813 -1.78718,0.71406 -1.25061,1.60967 -3.3928,1.42813 -2.1422,-0.17751 -3.21531,-1.78314 -3.75187,0 -0.53656,1.78718 -0.71406,3.2153 -3.0378,1.60967 -2.31971,-1.60967 -3.57033,-5.89406 -4.82095,-1.42813 -1.25063,4.46593 -1.25063,5.53502 0.17751,6.78564 1.42813,1.25061 1.78717,2.32373 5.00249,3.57435 3.21531,1.25063 3.21531,2.67875 5.53501,3.57033 2.32373,0.89561 2.50123,1.25062 6.0756,3.0378 3.57032,1.78719 4.46593,2.31971 6.60812,3.57033 2.14219,1.25061 2.67876,2.50124 3.21531,3.75186 0.53656,1.25063 2.85627,2.67875 1.9647,4.46593 -0.89158,1.78719 -2.67876,0.71407 -2.67876,1.60967 0,0.89158 0.35501,1.60564 -0.35906,3.39282 -0.71406,1.78718 -0.53252,2.50125 -3.03375,3.21531 -2.50125,0.71407 -3.92937,1.06908 -5.18,0.53656 -1.25063,-0.53656 -1.60968,1.60563 -2.8603,1.06908 -1.25063,-0.53656 -1.78315,-2.1422 -2.67875,-1.25063 -0.89157,0.89561 0.71406,1.42813 -1.42813,1.96469 -2.14219,0.53656 -2.32374,-0.89157 -2.50124,0.35905 -0.17751,1.25063 0.53656,2.50125 -1.78718,1.25063 -2.31971,-1.25063 -1.60564,-3.75188 -3.39283,-1.9647 -1.78717,1.78718 -0.89156,3.92939 -4.10687,2.1422 -3.21531,-1.78718 -2.14623,-1.96469 -4.64344,-1.78718 -2.50125,0.18155 -2.50125,0.35905 -3.39686,-1.60563 -0.89157,-1.9647 0.89561,-1.42813 -3.03376,-1.60967 -3.92937,-0.17751 -1.96468,2.32373 -4.46593,-1.06909 -2.50124,-3.39684 -3.0378,-6.78967 -4.11092,-3.0378 -1.06908,3.75186 0,4.64344 -1.60564,5.71656 -1.60563,1.06907 -9.82344,0.71406 -9.82344,0.71406 0,0 -0.17751,4.10688 -0.8956,4.82096 -0.71245,0.71406 -2.49883,-0.71408 -4.10607,0.71406 -1.60766,1.43216 -0.53616,2.32373 -1.96509,3.57435 -1.42893,1.25062 -4.28681,1.42813 -4.28681,1.42813 0,0 1.96468,-1.60564 2.50084,-3.03377 0.53575,-1.43216 1.25022,-3.9334 1.25022,-3.9334 0,0 -2.85788,1.07312 -4.1081,1.25063 -1.25062,0.18153 -3.2153,-0.17751 -3.2153,-0.17751 l 0.53574,4.10687 c 0,0 -3.39362,0 -3.39362,-1.42813 0,-1.42813 1.07191,-5.35751 1.96468,-5.89406 0.8932,-0.53656 2.14341,-0.35501 2.14341,-0.35501 0,0 -0.35703,-1.78718 0.53615,-2.14624 0.89279,-0.35501 1.42894,0 2.85789,0 1.42893,0 7.85914,-1.96468 7.85914,-1.96468 0,0 -0.17872,-4.64343 0.53575,-6.60813 0.71365,-1.96469 4.10648,-7.4997 2.50084,-8.3953 -1.60967,-0.89157 -2.85787,-0.1775 -3.75106,0.71406 -0.89319,0.89561 -2.50084,3.57436 -5.89446,4.28843 -3.39363,0.71406 -6.07319,1.06907 -6.07319,1.06907 0,0 -0.71447,0.35905 -0.71447,1.78718 0,1.42814 1.25063,2.86031 -0.53575,4.64345 -1.78597,1.78718 -3.21531,3.39685 -5.17999,2.50124 -1.96469,-0.89157 -2.32212,-1.96469 -2.32212,-1.96469 0,0 1.42894,0.89561 3.75106,0.35905 2.32212,-0.53655 1.42894,-5.00249 1.25062,-5.89406 -0.17872,-0.89561 -1.96509,-1.78718 -3.03659,-0.89561 -1.0719,0.89561 -2.50085,3.21532 -1.60766,4.11093 0.8932,0.89156 -2.50085,-1.9647 -2.32212,-3.21532 0.17871,-1.25063 0.71447,-2.14623 0.71447,-2.14623 0,0 -2.32213,0 -3.75106,-0.1775 -1.42894,-0.17751 -2.50044,-0.89158 -2.50044,0.1775 0,1.07311 0.71447,5.89407 -0.89318,2.86029 -1.60766,-3.03779 -2.32213,-3.75186 -0.71447,-5.3575 z"
         transform="matrix(1.0003143,0,0,1.0003143,2.3565241,-0.11599107)"
         inkscape:export-filename="fin.png"
         inkscape:export-xdpi="350"
         inkscape:export-ydpi="350" /><path
         id="path10416-7-3"
         sodipodi:nodetypes="cccccccccccccccccccccccccccccccccccccccccccccccccccccccccccccccccccccccccccccccccccccccccccccccccccccccccccccccccccccccccccccccccccccccccccccccccccccccccccccccccccccccccccccccccccccccccccccccc"
         style="fill:#0d0d0d;fill-opacity:1;fill-rule:evenodd;stroke:#0d0d0d;stroke-width:0.403427pt;stroke-opacity:1;filter:url(#filter561-5)"
         d="m 501.55459,532.68748 c 1.0719,-0.89561 2.67915,-2.14622 4.82255,-1.96468 2.14342,0.17751 6.96638,0.53252 8.75234,0.17751 1.78638,-0.35905 3.21531,0.1775 3.75106,-1.25063 0.53575,-1.42814 0.71447,-6.07561 2.14341,-7.85875 1.42894,-1.78717 5.35871,-3.75187 5.89446,-5.53905 0.53575,-1.78718 0.71447,-2.50124 0,-4.28439 -0.71446,-1.78718 -2.32211,-3.39685 -4.64424,-4.46593 -2.32172,-1.07311 -4.46513,-1.78718 -4.46513,-1.78718 0,0 -4.64424,4.28843 -4.82296,5.3575 -0.17872,1.07312 0.35744,2.14624 -0.71446,2.67876 -1.0715,0.53655 -2.85788,-1.06909 -3.21491,-3.92937 -0.35744,-2.85626 0.89278,-6.24909 0.71447,-8.21377 -0.17872,-1.96469 -1.42894,-3.75186 -0.35744,-5.71655 1.07191,-1.96468 3.57234,-5.00249 5.53703,-6.43063 1.96509,-1.42813 5.35872,-1.60967 5.89447,-3.39281 0.53616,-1.78718 -3.39363,-8.57685 -3.39363,-10.18249 0,-1.60564 0.53574,-4.64343 -0.71448,-7.14467 -1.25021,-2.50125 -2.67915,-7.85875 -8.03786,-11.25157 -5.35831,-3.39687 -9.10937,-4.82499 -10.00256,-7.32623 -0.89318,-2.50124 -0.17871,-2.50124 0.89319,-3.21531 1.07151,-0.71406 -2.85787,-4.82135 -4.1085,-8.75072 -1.25017,-3.92978 -3.39358,-11.78893 -2.50052,-12.50341 0.89311,-0.71446 3.57243,0 4.1081,1.42895 0.53575,1.42893 2.67916,10.18126 2.67916,10.18126 0,0 -0.53575,-6.60893 0.35743,-8.57362 0.89319,-1.96468 1.96468,-3.92977 3.03659,-3.39361 1.0715,0.53575 0.53575,12.14596 0.53575,12.14596 0,0 1.0719,-2.67916 1.78638,-4.28681 0.71446,-1.60766 1.25021,-3.0366 2.1434,-2.14341 0.89277,0.89279 0.17831,9.4668 0.17831,9.4668 0,0 1.42894,-2.1434 2.50085,-2.67955 1.0715,-0.53576 1.60766,-0.89278 2.32212,0.35744 0.71447,1.25021 0.53576,2.85786 0.53576,2.85786 0,0 0.53574,-1.78636 1.78595,-1.78636 1.25063,0 2.85829,0.53615 2.32213,1.96508 -0.53575,1.42894 4.82296,0.17832 4.46552,2.67916 -0.35703,2.50246 0,4.82215 1.42895,4.82215 1.42893,0 2.32212,1.9647 5.17999,1.25063 1.78638,1.07312 -0.89318,7.68125 0.35704,6.78967 1.25062,-0.89561 4.10849,-1.60968 5.17999,0.35502 1.07312,1.96468 -1.42893,4.28842 0,6.07157 1.42814,1.78717 0,3.39684 2.1422,4.82497 2.14622,1.42814 2.32373,0.35503 2.86029,3.57034 0.53656,3.21529 0.53656,4.64746 1.42814,5.89405 0.89156,1.25062 1.96468,2.14622 1.78717,4.82499 -0.18155,2.67874 -1.78717,5.17999 0.35502,4.82094 2.14622,-0.35502 3.0378,-2.50124 4.64344,-3.39281 1.60967,-0.89158 1.96468,-1.07312 4.11091,-2.67876 2.14219,-1.60967 2.50124,-3.75187 3.75187,-4.28842 1.24659,-0.53253 2.31969,-0.35501 4.10688,-1.06909 1.78718,-0.71406 3.57032,-2.32373 4.46593,-3.0378 0.89157,-0.71406 0.89157,-1.0731 2.50124,-2.50123 1.60564,-1.42813 3.21531,-2.31971 4.28439,-4.64345 1.07312,-2.32373 0.8956,-2.50124 2.14624,-5.89406 1.24659,-3.39281 0.89157,-4.46594 1.60564,-5.89407 0.71406,-1.42812 0.71406,-2.67874 1.96468,-3.92937 1.25062,-1.25062 2.32374,-2.67874 2.50125,-1.42813 0.1775,1.25063 0.1775,3.03377 0.1775,4.10689 0,1.0731 1.60967,-1.60967 3.03779,-4.28843 1.42815,-2.67874 0.71408,-3.03537 1.25063,-5.35751 0.53656,-2.32172 0,-3.92937 0.17752,-6.60852 0.1775,-2.67955 0.53655,-2.85787 0.71407,-6.78766 0.1775,-3.92977 0.49621,-4.58937 0.49621,-7.44725 0,-2.85786 -0.10493,-4.0141 -0.13717,-6.12765 0.61725,-1.62257 1.31517,-2.1188 1.78315,-1.96509 0.58093,0.15371 1.35954,0.1638 1.82752,2.32213 0.35905,2.32211 0.67776,4.05362 1.03277,8.39531 -0.35905,4.2868 -0.53656,8.03787 0.17751,9.10937 0.71406,1.0719 1.25061,0.89318 1.78718,-0.35703 0.53655,-1.25063 0.53655,-1.78638 1.25061,-3.92979 0.71407,-2.1434 0.66969,-3.54813 1.0368,-6.53954 -0.18152,-4.46553 0.0323,-6.49961 0.21382,-9.89322 0.17751,-3.39403 -0.0202,-3.49288 0.35502,-5.53744 0.32275,-1.93499 0.77457,-2.39612 2.32375,-2.14332 0.89157,1.0717 1.07311,3.75098 1.42812,6.07318 0.35906,2.32212 0.35906,2.1434 0.53656,6.43022 0.17751,4.2868 0.0242,5.99815 -0.33081,7.42708 -0.0847,1.59272 -0.40343,3.17536 -0.20575,3.8257 1.07312,-0.71448 1.07312,-1.9647 2.1422,-4.46513 1.07311,-2.50085 1.96469,-4.64425 2.32373,-7.50212 0.35502,-2.85788 1.31114,-3.90477 1.92032,-7.05028 1.42812,-3.03663 1.74279,-3.77072 2.72312,-3.84546 1.03682,0.74415 1.52898,1.41408 1.42813,3.75105 -0.53655,2.50044 -0.53655,3.75106 -1.42813,6.25149 -0.89158,2.50086 -0.71407,3.57236 -1.96468,6.25192 -0.75844,2.35157 -0.85124,3.15035 -1.25063,3.92936 1.78718,0.17872 1.76298,-0.5309 2.8603,-1.78596 1.80331,-3.43881 1.12152,-2.71426 1.78314,-3.75106 0.99243,-2.07402 1.84366,-2.83771 2.67876,-2.50085 0.89561,1.42895 1.25062,1.78638 0.53655,3.39403 -0.71406,1.60725 -0.17751,0.53575 -1.25061,2.85788 -1.06909,2.32171 -2.14221,3.2149 -0.71407,3.03618 1.42813,-0.17832 1.60967,0 2.50124,-1.42893 0.89157,-1.42895 0,-1.60725 1.96469,-2.50044 1.96468,-0.89319 3.21531,-2.50084 3.75186,-1.25021 0.53655,1.25021 0.71406,1.07149 -0.53655,2.85786 -1.25063,1.78597 -2.50125,2.32172 -1.96469,3.2149 0.53655,0.8932 1.96469,1.07192 3.03779,1.07192 1.06909,0 1.25063,0.17831 0.71407,1.96469 -0.53656,1.78636 -0.71407,1.78636 -0.89561,2.67915 -0.1775,0.89318 0.71811,1.60766 0.71811,1.60766 0,0 1.60563,-1.07151 0.35501,1.60765 -1.25062,2.67915 -1.96468,1.96468 -2.67875,3.2149 -0.71407,1.25063 -1.42813,2.50085 -0.35905,2.50085 1.07312,0 2.14622,-0.17872 1.96468,0.71447 -0.1775,0.89318 -1.78314,1.78435 -0.89156,2.3209 0.89156,0.53657 1.60967,-0.1775 2.32373,0.53657 0.71407,0.71406 0,1.96468 0,2.86028 0,0.89158 -0.18154,1.60564 0.1775,2.49722 0.35503,0.89559 1.07312,1.78718 0.53657,2.67875 -0.53657,0.89561 0.1775,1.07312 -1.25063,1.96873 -1.42813,0.89156 -2.32374,0.71406 -2.32374,1.60562 0,0.89158 -0.1775,0.71408 0.71407,1.42814 0.8956,0.71407 1.96469,0.1775 1.25062,1.78717 -0.71406,1.60564 -0.53656,1.42813 -0.89157,2.85626 -0.35905,1.43217 0.17751,0.71408 -1.42813,4.11092 -1.60967,3.39282 -3.21531,5.89407 -4.82498,6.78563 -1.60563,0.89561 -1.25061,2.8603 -0.17751,3.21532 1.07312,0.35905 1.25063,1.96469 0.17751,4.28843 -1.06907,2.3197 -2.3197,5.3575 -2.67874,6.96313 -0.35503,1.60967 -0.71408,1.78718 -2.50126,3.75188 -1.78314,1.96468 -3.21531,3.75186 -4.82094,4.28841 -1.60967,0.53656 -1.78718,2.3197 -2.86029,3.21531 -1.06909,0.89158 -1.42813,1.42814 -3.74784,1.42814 -2.32374,0 -2.32374,-0.53656 -4.64747,0.17751 -2.3197,0.71406 -3.39282,1.42813 -3.57033,2.50123 -0.1775,1.07312 -0.89156,1.60967 -2.32373,1.25063 -1.42814,-0.35502 -0.35502,0.71406 -2.14221,1.42813 -1.78718,0.71406 -1.25061,1.60967 -3.3928,1.42813 -2.1422,-0.17751 -3.21531,-1.78314 -3.75187,0 -0.53656,1.78718 -0.71406,3.2153 -3.0378,1.60967 -2.31971,-1.60967 -3.57033,-5.89406 -4.82095,-1.42813 -1.25063,4.46593 -1.25063,5.53502 0.17751,6.78564 1.42813,1.25061 1.78717,2.32373 5.00249,3.57435 3.21531,1.25063 3.21531,2.67875 5.53501,3.57033 2.32373,0.89561 2.50123,1.25062 6.0756,3.0378 3.57032,1.78719 4.46593,2.31971 6.60812,3.57033 2.14219,1.25061 2.67876,2.50124 3.21531,3.75186 0.53656,1.25063 2.85627,2.67875 1.9647,4.46593 -0.89158,1.78719 -2.67876,0.71407 -2.67876,1.60967 0,0.89158 0.35501,1.60564 -0.35906,3.39282 -0.71406,1.78718 -0.53252,2.50125 -3.03375,3.21531 -2.50125,0.71407 -3.92937,1.06908 -5.18,0.53656 -1.25063,-0.53656 -1.60968,1.60563 -2.8603,1.06908 -1.25063,-0.53656 -1.78315,-2.1422 -2.67875,-1.25063 -0.89157,0.89561 0.71406,1.42813 -1.42813,1.96469 -2.14219,0.53656 -2.32374,-0.89157 -2.50124,0.35905 -0.17751,1.25063 0.53656,2.50125 -1.78718,1.25063 -2.31971,-1.25063 -1.60564,-3.75188 -3.39283,-1.9647 -1.78717,1.78718 -0.89156,3.92939 -4.10687,2.1422 -3.21531,-1.78718 -2.14623,-1.96469 -4.64344,-1.78718 -2.50125,0.18155 -2.50125,0.35905 -3.39686,-1.60563 -0.89157,-1.9647 0.89561,-1.42813 -3.03376,-1.60967 -3.92937,-0.17751 -1.96468,2.32373 -4.46593,-1.06909 -2.50124,-3.39684 -3.0378,-6.78967 -4.11092,-3.0378 -1.06908,3.75186 0,4.64344 -1.60564,5.71656 -1.60563,1.06907 -9.82344,0.71406 -9.82344,0.71406 0,0 -0.17751,4.10688 -0.8956,4.82096 -0.71245,0.71406 -2.49883,-0.71408 -4.10607,0.71406 -1.60766,1.43216 -0.53616,2.32373 -1.96509,3.57435 -1.42893,1.25062 -4.28681,1.42813 -4.28681,1.42813 0,0 1.96468,-1.60564 2.50084,-3.03377 0.53575,-1.43216 1.25022,-3.9334 1.25022,-3.9334 0,0 -2.85788,1.07312 -4.1081,1.25063 -1.25062,0.18153 -3.2153,-0.17751 -3.2153,-0.17751 l 0.53574,4.10687 c 0,0 -3.39362,0 -3.39362,-1.42813 0,-1.42813 1.07191,-5.35751 1.96468,-5.89406 0.8932,-0.53656 2.14341,-0.35501 2.14341,-0.35501 0,0 -0.35703,-1.78718 0.53615,-2.14624 0.89279,-0.35501 1.42894,0 2.85789,0 1.42893,0 7.85914,-1.96468 7.85914,-1.96468 0,0 -0.17872,-4.64343 0.53575,-6.60813 0.71365,-1.96469 4.10648,-7.4997 2.50084,-8.3953 -1.60967,-0.89157 -2.85787,-0.1775 -3.75106,0.71406 -0.89319,0.89561 -2.50084,3.57436 -5.89446,4.28843 -3.39363,0.71406 -6.07319,1.06907 -6.07319,1.06907 0,0 -0.71447,0.35905 -0.71447,1.78718 0,1.42814 1.25063,2.86031 -0.53575,4.64345 -1.78597,1.78718 -3.21531,3.39685 -5.17999,2.50124 -1.96469,-0.89157 -2.32212,-1.96469 -2.32212,-1.96469 0,0 1.42894,0.89561 3.75106,0.35905 2.32212,-0.53655 1.42894,-5.00249 1.25062,-5.89406 -0.17872,-0.89561 -1.96509,-1.78718 -3.03659,-0.89561 -1.0719,0.89561 -2.50085,3.21532 -1.60766,4.11093 0.8932,0.89156 -2.50085,-1.9647 -2.32212,-3.21532 0.17871,-1.25063 0.71447,-2.14623 0.71447,-2.14623 0,0 -2.32213,0 -3.75106,-0.1775 -1.42894,-0.17751 -2.50044,-0.89158 -2.50044,0.1775 0,1.07311 0.71447,5.89407 -0.89318,2.86029 -1.60766,-3.03779 -2.32213,-3.75186 -0.71447,-5.3575 z"
         transform="matrix(1.0003143,0,0,1.0003143,151.85653,283.98546)"
         inkscape:export-filename="fin.png"
         inkscape:export-xdpi="350"
         inkscape:export-ydpi="350" /><text
         xml:space="preserve"
         id="text1407"
         style="font-style:normal;font-variant:normal;font-weight:normal;font-stretch:normal;font-size:192px;font-family:Againts;-inkscape-font-specification:Againts;white-space:pre;shape-inside:url(#rect1409);display:inline;fill:#1da1f2"
         transform="matrix(1.129178,0,0,1.129178,-72.31257,-171.94506)"
         inkscape:export-filename="text140721.png"
         inkscape:export-xdpi="350"
         inkscape:export-ydpi="350"><tspan
           x="347"
           y="645.21053"
           id="tspan1153"><tspan
             style="letter-spacing:13.284px"
             id="tspan1141">T</tspan><tspan
             dx="13.284"
             id="tspan1143">w</tspan><tspan
             dx="-53.136002"
             style="letter-spacing:53.136px"
             id="tspan1145"> </tspan><tspan
             dx="39.852001"
             style="letter-spacing:13.284px;fill:#0d0d0d"
             id="tspan1147">l</tspan><tspan
             dx="15.498012 2.214"
             style="letter-spacing:-2.214px;fill:#0d0d0d"
             id="tspan1149">on</tspan><tspan
             dx="-4.428009"
             style="fill:#0d0d0d"
             id="tspan1151">e</tspan></tspan></text></g></g></svg>
